<?xml version="1.0" encoding="UTF-8" standalone="no"?>
<!-- Created with Inkscape (http://www.inkscape.org/) -->

<svg
   xmlns:dc="http://purl.org/dc/elements/1.1/"
   xmlns:cc="http://creativecommons.org/ns#"
   xmlns:rdf="http://www.w3.org/1999/02/22-rdf-syntax-ns#"
   xmlns:svg="http://www.w3.org/2000/svg"
   xmlns="http://www.w3.org/2000/svg"
   xmlns:sodipodi="http://sodipodi.sourceforge.net/DTD/sodipodi-0.dtd"
   xmlns:inkscape="http://www.inkscape.org/namespaces/inkscape"
   width="45.685074mm"
   height="11.64167mm"
   viewBox="0 0 45.685074 11.64167"
   version="1.1"
   id="svg8"
   inkscape:version="0.92.1 r15371"
   sodipodi:docname="zmslabs.svg"
   inkscape:export-filename="C:\Users\Frank Hoffmann\Desktop\Rastergrafik.png"
   inkscape:export-xdpi="145"
   inkscape:export-ydpi="145">
  <defs
     id="defs2" />
  <sodipodi:namedview
     id="base"
     pagecolor="#ffffff"
     bordercolor="#666666"
     borderopacity="1.0"
     inkscape:pageopacity="0.0"
     inkscape:pageshadow="2"
     inkscape:zoom="11.261749"
     inkscape:cx="90.839618"
     inkscape:cy="33.284589"
     inkscape:document-units="mm"
     inkscape:current-layer="layer1"
     showgrid="false"
     inkscape:lockguides="true"
     fit-margin-top="0"
     fit-margin-left="0"
     fit-margin-right="0"
     fit-margin-bottom="0"
     inkscape:window-width="1920"
     inkscape:window-height="1057"
     inkscape:window-x="-8"
     inkscape:window-y="399"
     inkscape:window-maximized="1" />
  <metadata
     id="metadata5">
    <rdf:RDF>
      <cc:Work
         rdf:about="">
        <dc:format>image/svg+xml</dc:format>
        <dc:type
           rdf:resource="http://purl.org/dc/dcmitype/StillImage" />
        <dc:title></dc:title>
      </cc:Work>
    </rdf:RDF>
  </metadata>
  <g
     inkscape:label="Ebene 1"
     inkscape:groupmode="layer"
     id="layer1"
     transform="translate(-17.317001,-136.98636)">
    <g
       aria-label="ZMS"
       style="font-style:normal;font-variant:normal;font-weight:normal;font-stretch:normal;font-size:16.33022881px;line-height:20.41278267px;font-family:Haettenschweiler;-inkscape-font-specification:'Haettenschweiler, Normal';font-variant-ligatures:normal;font-variant-caps:normal;font-variant-numeric:normal;font-feature-settings:normal;text-align:start;letter-spacing:0px;word-spacing:0px;writing-mode:lr-tb;text-anchor:start;fill:#07aee9;fill-opacity:1;stroke:none;stroke-width:0.81651139px;stroke-linecap:butt;stroke-linejoin:miter;stroke-opacity:1"
       id="text4498">
      <path
         d="m 22.986333,148.52437 h -5.669332 v -1.45122 l 2.766889,-8.49204 h -2.59944 v -1.49109 h 5.310513 v 1.50704 l -2.750941,8.46014 h 2.942311 z"
         style="font-style:normal;font-variant:normal;font-weight:normal;font-stretch:normal;font-size:16.33022881px;font-family:Haettenschweiler;-inkscape-font-specification:'Haettenschweiler, Normal';font-variant-ligatures:normal;font-variant-caps:normal;font-variant-numeric:normal;font-feature-settings:normal;text-align:start;letter-spacing:0.13265194px;writing-mode:lr-tb;text-anchor:start;fill:#07aee9;fill-opacity:1;stroke-width:0.81651139px"
         id="path4612"
         inkscape:connector-curvature="0" />
      <path
         d="M 32.312713,148.52437 H 30.07209 v -6.41887 l -1.307694,6.41887 H 27.034094 L 25.53503,142.1055 v 6.41887 h -1.961542 v -11.43435 h 3.229367 l 1.148219,5.93246 0.996718,-5.93246 h 3.364921 z"
         style="font-style:normal;font-variant:normal;font-weight:normal;font-stretch:normal;font-size:16.33022881px;font-family:Haettenschweiler;-inkscape-font-specification:'Haettenschweiler, Normal';font-variant-ligatures:normal;font-variant-caps:normal;font-variant-numeric:normal;font-feature-settings:normal;text-align:start;letter-spacing:0.13265194px;writing-mode:lr-tb;text-anchor:start;fill:#07aee9;fill-opacity:1;stroke-width:0.81651139px"
         id="path4614"
         inkscape:connector-curvature="0" />
      <path
         d="m 33.003526,143.94744 h 2.288465 v 2.62336 q 0,0.39071 0.470451,0.39071 0.454503,0 0.454503,-0.39071 v -1.35554 q 0,-0.62195 -0.829269,-1.45919 -1.602723,-1.55488 -1.993436,-2.08912 -0.390714,-0.53424 -0.390714,-1.17214 v -1.28378 q 0,-2.22467 2.902443,-2.22467 2.599441,0 2.599441,2.02533 v 1.97749 h -2.288465 v -2.10507 q 0,-0.34287 -0.374766,-0.34287 -0.438556,0 -0.438556,0.66182 l 0.04784,0.74156 q 0,0.6379 0.845217,1.48312 1.570827,1.50703 1.993436,2.10506 0.430582,0.59804 0.430582,1.35554 v 1.4592 q 0,2.28049 -2.910417,2.28049 -2.806758,0 -2.806758,-2.07318 z"
         style="font-style:normal;font-variant:normal;font-weight:normal;font-stretch:normal;font-size:16.33022881px;font-family:Haettenschweiler;-inkscape-font-specification:'Haettenschweiler, Normal';font-variant-ligatures:normal;font-variant-caps:normal;font-variant-numeric:normal;font-feature-settings:normal;text-align:start;letter-spacing:0.13265194px;writing-mode:lr-tb;text-anchor:start;fill:#07aee9;fill-opacity:1;stroke-width:0.81651139px"
         id="path4616"
         inkscape:connector-curvature="0" />
    </g>
    <path
       style="fill:#000000;fill-rule:evenodd;stroke:none;stroke-width:0.26680338px;stroke-linecap:butt;stroke-linejoin:miter;stroke-opacity:1"
       d="m 39.438078,137.04737 v 11.38006 h 1.072354 v -11.38006 z m 1.945969,0 v 11.38006 h 2.411094 c -0.281917,-0.10249 -0.525959,-0.24944 -0.729936,-0.44416 -0.425796,-0.41599 -0.638693,-0.97882 -0.638693,-1.68847 0,-0.70968 0.310779,-1.28474 0.932344,-1.72522 0.621563,-0.44048 1.429106,-0.66071 2.422632,-0.66071 h 1.952782 v -0.98374 c 0,-0.56772 -0.181087,-1.0131 -0.543255,-1.33613 -0.357275,-0.323 -0.863825,-0.48452 -1.519649,-0.48452 -0.601987,0 -1.088959,0.14683 -1.460919,0.44048 -0.367062,0.29365 -0.550595,0.66317 -0.550595,1.10853 h -0.814883 l -0.01468,-0.044 c -0.02939,-0.59711 0.225132,-1.12077 0.763494,-1.57104 0.543257,-0.45514 1.250468,-0.68274 2.121635,-0.68274 0.871166,0 1.571037,0.22269 2.09961,0.66806 0.528575,0.44538 0.792863,1.08407 0.792863,1.91608 v 3.90557 c 0,0.27897 0.01468,0.55061 0.04404,0.81488 0.03347,0.25807 0.08603,0.51379 0.156792,0.76717 h 1.194007 v -11.38006 z m 9.49964,0 v 4.67378 c 0.264289,-0.43557 0.601989,-0.77085 1.0131,-1.00574 0.411112,-0.23983 0.898085,-0.35974 1.46092,-0.35974 0.954366,0 1.700733,0.38175 2.239094,1.14525 0.538363,0.7586 0.807543,1.77171 0.807543,3.0393 v 0.15416 c 0,1.18929 -0.26918,2.13876 -0.807543,2.84842 -0.322474,0.42215 -0.719492,0.71536 -1.187715,0.88463 h 4.432571 c -0.379301,-0.11501 -0.707214,-0.28753 -0.983735,-0.51755 -0.548149,-0.46007 -0.807543,-1.00821 -0.778177,-1.64446 l 0.01468,-0.044 h 0.807544 c 0.03426,0.57263 0.266733,0.98863 0.697421,1.24803 0.435585,0.25938 0.94703,0.38908 1.534335,0.38908 0.636243,0 1.1379,-0.14191 1.504965,-0.4258 0.367063,-0.28386 0.550597,-0.62401 0.550597,-1.02045 0,-0.37195 -0.154168,-0.69496 -0.462503,-0.96905 -0.30344,-0.27895 -0.854039,-0.50653 -1.651791,-0.68273 -0.939686,-0.19577 -1.639557,-0.4625 -2.099614,-0.8002 -0.455159,-0.3426 -0.682739,-0.81977 -0.682739,-1.43155 0,-0.60687 0.254497,-1.12077 0.763497,-1.54167 0.513891,-0.4209 1.191737,-0.63136 2.033537,-0.63136 0.885849,0 1.593062,0.22514 2.121637,0.6754 0.528573,0.44539 0.780624,0.99597 0.756152,1.65179 l -0.01468,0.044 h -0.814886 c 0,-0.43557 -0.188426,-0.81487 -0.565279,-1.1379 -0.371958,-0.323 -0.866273,-0.48452 -1.482942,-0.48452 -0.636246,0 -1.115878,0.13949 -1.438893,0.41845 -0.323021,0.27898 -0.484528,0.60446 -0.484528,0.9764 0,0.36216 0.137039,0.66317 0.411112,0.90298 0.278969,0.23492 0.832015,0.44293 1.659135,0.62401 0.929897,0.20556 1.632217,0.49187 2.106954,0.85893 0.342881,0.26241 0.560859,0.59126 0.658618,0.98374 v -8.82162 z m 2.30517,4.07177 c -0.606884,0 -1.096301,0.1493 -1.46826,0.44784 -0.371962,0.29367 -0.65093,0.67542 -0.83691,1.14524 v 3.63394 c 0.195769,0.46006 0.484527,0.82468 0.866273,1.09387 0.386644,0.26429 0.871169,0.39643 1.45358,0.39643 0.76839,0 1.345904,-0.28387 1.732545,-0.8516 0.386642,-0.56773 0.579964,-1.3312 0.579964,-2.29048 v -0.15416 c 0,-1.0131 -0.195769,-1.83532 -0.587304,-2.46668 -0.391539,-0.63624 -0.971498,-0.9544 -1.739888,-0.9544 z m -7.414714,3.46511 c -0.714553,0 -1.304303,0.17132 -1.76925,0.51391 -0.464951,0.3377 -0.697427,0.74635 -0.697427,1.22598 0,0.45028 0.146828,0.81246 0.44048,1.08652 0.298547,0.27407 0.707212,0.41111 1.225996,0.41111 0.675399,0 1.260257,-0.15906 1.754572,-0.47718 0.494314,-0.32302 0.829564,-0.73657 1.005756,-1.24069 v -1.51965 z m 17.227932,2.29155 c -0.106059,0.43425 -0.353595,0.80369 -0.746715,1.10747 -0.252583,0.19467 -0.545757,0.34168 -0.876236,0.44416 h 1.622951 z m -15.267805,0.23387 c -0.274074,0.43068 -0.658268,0.78796 -1.152584,1.07181 -0.177209,0.10007 -0.36448,0.1818 -0.560561,0.24595 h 1.871511 c -0.05186,-0.2699 -0.09303,-0.50555 -0.121661,-0.7011 -0.02448,-0.20066 -0.03668,-0.4062 -0.03668,-0.61666 z m 3.105368,0.14681 -0.144725,1.17095 h 1.577854 c -0.141211,-0.0483 -0.277757,-0.10358 -0.405346,-0.17252 -0.420899,-0.23492 -0.763495,-0.56773 -1.027783,-0.99843 z"
       id="rect4500"
       inkscape:connector-curvature="0" />
  </g>
</svg>
