<?xml version="1.0" encoding="UTF-8" standalone="no"?>
<svg
	width="16"
	height="16"
	viewBox="0 0 0.64 0.64"
	version="1.1"
	id="icon_swagger"
	xmlns="http://www.w3.org/2000/svg"
	xmlns:svg="http://www.w3.org/2000/svg"
	xmlns:rdf="http://www.w3.org/1999/02/22-rdf-syntax-ns#"
	xmlns:cc="http://creativecommons.org/ns#"
	xmlns:dc="http://purl.org/dc/elements/1.1/">
	<title id="title">Swagger</title>
	<g
		id="g12729"
		transform="matrix(0.97994838,0,0,0.97994838,-11.34143,-11.341343)">
		<path
			d="m 12.206593,11.900978 a 0.30576598,0.30576598 0 1 1 -0.08955,-0.21622 0.30481528,0.30481528 0 0 1 0.08955,0.21622 z"
			style="fill:#ffffff;stroke:#000000;stroke-width:0.04;stroke-dasharray:none;paint-order:markers fill stroke"
			id="path6" />
		<path
			id="path8"
			style="fill:#000000;stroke-width:0.0256946"
			d="m 11.792797,11.721385 a 0.12302584,0.12302584 0 0 0 -0.03003,0.0035 0.04419475,0.04419475 0 0 0 -0.02081,0.01419 0.04745796,0.04745796 0 0 0 -0.01146,0.02312 0.27100116,0.27100116 0 0 0 -0.0032,0.05062 0.23330715,0.23330715 0 0 1 -0.0014,0.03124 0.0539587,0.0539587 0 0 1 -0.0065,0.01994 0.02893214,0.02893214 0 0 1 -0.01128,0.01133 0.07256161,0.07256161 0 0 1 -0.02264,0.0037 v 0.04491 a 0.05411287,0.05411287 0 0 1 0.02729,0.0064 0.03990374,0.03990374 0 0 1 0.01172,0.02143 0.21619453,0.21619453 0 0 1 0.0028,0.04473 0.22415986,0.22415986 0 0 0 0.003,0.04332 0.04817741,0.04817741 0 0 0 0.01172,0.02313 0.04894825,0.04894825 0 0 0 0.02143,0.01318 0.09874442,0.09874442 0 0 0 0.0332,0.0049 h 0.0093 v -0.03818 a 0.07520815,0.07520815 0 0 1 -0.02474,-0.0026 0.01783207,0.01783207 0 0 1 -0.0086,-0.0074 0.07795748,0.07795748 0 0 1 -0.0028,-0.02395 c 0,-0.0057 -4.11e-4,-0.01896 -0.0012,-0.03967 a 0.1490288,0.1490288 0 0 0 -0.0046,-0.03256 0.06107611,0.06107611 0 0 0 -0.01013,-0.02055 0.06248932,0.06248932 0 0 0 -0.01701,-0.01488 0.07551649,0.07551649 0 0 0 0.01752,-0.01542 0.0625664,0.0625664 0 0 0 0.0094,-0.01899 0.11919734,0.11919734 0 0 0 0.0046,-0.03004 c 0.0011,-0.02196 0.0016,-0.03687 0.0016,-0.04473 a 0.08664226,0.08664226 0 0 1 0.0026,-0.02418 0.01618761,0.01618761 0 0 1 0.0082,-0.0071 0.08163181,0.08163181 0 0 1 0.0251,-0.0023 v -0.03692 h -0.0093 a 0.12302584,0.12302584 0 0 0 -0.0038,-9e-5 z m 0.215213,5.2e-5 a 0.12302584,0.12302584 0 0 0 -0.0038,9e-5 h -0.0093 v 0.03718 a 0.08163181,0.08163181 0 0 1 0.0251,0.0023 0.01618761,0.01618761 0 0 1 0.0082,0.0071 0.08664226,0.08664226 0 0 1 0.0026,0.02418 c 0,0.0079 5.3e-4,0.02277 0.0016,0.04473 a 0.11919734,0.11919734 0 0 0 0.0046,0.03004 0.0625664,0.0625664 0 0 0 0.0094,0.01899 0.07551649,0.07551649 0 0 0 0.01752,0.01542 0.06248932,0.06248932 0 0 0 -0.01701,0.01488 0.06107611,0.06107611 0 0 0 -0.01012,0.02056 0.1490288,0.1490288 0 0 0 -0.0046,0.03253 c -8.22e-4,0.02071 -0.0012,0.03393 -0.0012,0.03967 a 0.07795748,0.07795748 0 0 1 -0.0028,0.02395 0.01783207,0.01783207 0 0 1 -0.0086,0.0074 0.07520815,0.07520815 0 0 1 -0.02474,0.0026 v 0.03811 h 0.0093 a 0.09874442,0.09874442 0 0 0 0.0332,-0.0049 0.04894825,0.04894825 0 0 0 0.0214,-0.01339 0.04817741,0.04817741 0 0 0 0.01172,-0.02313 0.22415986,0.22415986 0 0 0 0.0031,-0.04322 0.21619453,0.21619453 0 0 1 0.0028,-0.04473 0.03990374,0.03990374 0 0 1 0.01172,-0.02143 0.05411287,0.05411287 0 0 1 0.02736,-0.0065 v -0.04481 a 0.07256161,0.07256161 0 0 1 -0.02269,-0.0037 0.02893214,0.02893214 0 0 1 -0.01128,-0.01133 0.0539587,0.0539587 0 0 1 -0.0065,-0.01994 0.23330715,0.23330715 0 0 1 -0.0014,-0.03125 0.27100116,0.27100116 0 0 0 -0.0032,-0.05062 0.04745796,0.04745796 0 0 0 -0.01146,-0.02312 0.04419475,0.04419475 0 0 0 -0.02081,-0.01418 0.12302584,0.12302584 0 0 0 -0.03003,-0.0035 z m -0.194332,0.154007 a 0.02410155,0.02410155 0 0 0 -0.02437,0.0251 0.02507795,0.02507795 0 1 0 0.0251,-0.02508 0.02410155,0.02410155 0 0 0 -7.39e-4,-2e-5 z m 0.08662,0 a 0.02410155,0.02410155 0 0 0 -0.02437,0.0251 0.02507795,0.02507795 0 1 0 0.0251,-0.02508 0.02410155,0.02410155 0 0 0 -7.37e-4,-2e-5 z m 0.08657,0 a 0.02410155,0.02410155 0 0 0 -0.02437,0.0251 0.02507795,0.02507795 0 1 0 0.0251,-0.02508 0.02410155,0.02410155 0 0 0 -7.39e-4,-2e-5 z" />
	</g>
</svg>