<?xml version="1.0" encoding="UTF-8"?>
<svg id="icon_zope" width="16" height="16.011" version="1.1" viewBox="0 0 .64 .64044" xmlns="http://www.w3.org/2000/svg">
 <title id="title">Zope</title>
 <path d="m0.3157 0c-0.088212 0.001183-0.17207 0.03874-0.23172 0.10391h0.41c0.032316 0 0.048822 0.038906 0.026328 0.062109l-0.24969 0.29289h0.33766c0.020862-0.043304 0.031719-0.090807 0.031719-0.13891 0-0.17672-0.14328-0.32-0.32-0.32h-7.813e-5c-0.0014023 4.1274e-7 -0.0028186-1.8778e-5 -0.0042188 0zm-0.28398 0.18109c-0.020859 0.043303-0.031719 0.090807-0.031719 0.13891 0 0.17672 0.14328 0.32 0.32 0.32 0.08978-1.19e-6 0.1754-0.037758 0.23602-0.10398h-0.41008c-0.032316 0-0.048742-0.038829-0.02625-0.062031l0.24969-0.29289h-0.33766z" style="paint-order:markers stroke fill"/>
</svg>
