<?xml version="1.0" encoding="UTF-8" standalone="no"?>
<!-- Created with Inkscape (http://www.inkscape.org/) -->

<svg
   xmlns:dc="http://purl.org/dc/elements/1.1/"
   xmlns:cc="http://creativecommons.org/ns#"
   xmlns:rdf="http://www.w3.org/1999/02/22-rdf-syntax-ns#"
   xmlns:svg="http://www.w3.org/2000/svg"
   xmlns="http://www.w3.org/2000/svg"
   xmlns:sodipodi="http://sodipodi.sourceforge.net/DTD/sodipodi-0.dtd"
   xmlns:inkscape="http://www.inkscape.org/namespaces/inkscape"
   width="16"
   height="16"
   viewBox="0 0 16 16"
   id="svg2"
   version="1.1"
   inkscape:version="0.91 r13725"
   inkscape:export-filename="C:\Users\Frank Hoffmann\Desktop\ZMS_ICONS\acl_mediadb.png"
   inkscape:export-xdpi="90"
   inkscape:export-ydpi="90"
   sodipodi:docname="acl_mediadb.svg">
  <defs
     id="defs4" />
  <sodipodi:namedview
     id="base"
     pagecolor="#ffffff"
     bordercolor="#666666"
     borderopacity="1.0"
     inkscape:pageopacity="0.0"
     inkscape:pageshadow="2"
     inkscape:zoom="59.25"
     inkscape:cx="10.363138"
     inkscape:cy="7.5979859"
     inkscape:document-units="px"
     inkscape:current-layer="layer1"
     showgrid="true"
     borderlayer="true"
     inkscape:showpageshadow="false"
     units="px"
     inkscape:window-width="1920"
     inkscape:window-height="1147"
     inkscape:window-x="-8"
     inkscape:window-y="-8"
     inkscape:window-maximized="1">
    <inkscape:grid
       type="xygrid"
       id="grid3353" />
  </sodipodi:namedview>
  <metadata
     id="metadata7">
    <rdf:RDF>
      <cc:Work
         rdf:about="">
        <dc:format>image/svg+xml</dc:format>
        <dc:type
           rdf:resource="http://purl.org/dc/dcmitype/StillImage" />
        <dc:title />
      </cc:Work>
    </rdf:RDF>
  </metadata>
  <g
     inkscape:label="Ebene 1"
     inkscape:groupmode="layer"
     id="layer1"
     transform="translate(0,-1036.3622)">
    <g
       style="font-style:normal;font-variant:normal;font-weight:normal;font-stretch:normal;font-size:15.625px;line-height:125%;font-family:FontAwesome;-inkscape-font-specification:'FontAwesome, Normal';text-align:start;letter-spacing:0px;word-spacing:0px;writing-mode:lr-tb;text-anchor:start;fill:#428bca;fill-opacity:1;stroke:none;stroke-width:1px;stroke-linecap:butt;stroke-linejoin:miter;stroke-opacity:1"
       id="text3349-9" />
    <g
       style="font-style:normal;font-variant:normal;font-weight:normal;font-stretch:normal;font-size:15.625px;line-height:125%;font-family:FontAwesome;-inkscape-font-specification:'FontAwesome, Normal';text-align:start;letter-spacing:0px;word-spacing:0px;writing-mode:lr-tb;text-anchor:start;fill:#428bca;fill-opacity:1;stroke:none;stroke-width:1px;stroke-linecap:butt;stroke-linejoin:miter;stroke-opacity:1"
       id="text3349-9-4"
       transform="translate(2.5822785,-0.82700422)">
      <path
         id="path3359"
         style="font-style:normal;font-variant:normal;font-weight:normal;font-stretch:normal;font-size:15px;line-height:125%;font-family:FontAwesome;-inkscape-font-specification:'FontAwesome, Normal';text-align:start;writing-mode:lr-tb;text-anchor:start;fill:#428bca;fill-opacity:1"
         d="m 8.6151298,1046.2623 c 0,-0.078 -0.02511,-0.1423 -0.07533,-0.1926 l -2.9464289,-2.9464 c -0.05022,-0.05 -0.114394,-0.075 -0.192522,-0.075 -0.07813,0 -0.142299,0.025 -0.192522,0.075 l -2.938059,2.9381 c -0.05581,0.067 -0.08371,0.1339 -0.08371,0.2009 0,0.078 0.02511,0.1422 0.07534,0.1925 0.05022,0.05 0.114394,0.075 0.192522,0.075 l 1.875001,0 0,2.9464 c 0,0.073 0.02511,0.1368 0.07533,0.1926 0.05581,0.05 0.119981,0.075 0.192522,0.075 l 1.607143,0 c 0.07254,0 0.133929,-0.025 0.184152,-0.075 0.05581,-0.056 0.08371,-0.1202 0.08371,-0.1926 l 0,-2.9464 1.875,0 c 0.07254,0 0.133929,-0.025 0.1841519,-0.075 0.05581,-0.056 0.08371,-0.1202 0.0837,-0.1925 z m 4.0570562,-3.0262 0,6.1384 q 0,0.8022 -0.575474,1.3776 -0.575474,0.5755 -1.377651,0.5755 l -10.6026788,0 q -0.8021763,0 -1.3776506,-0.5755 -0.5754744,-0.5754 -0.5754744,-1.3776 l 0,-8.3706 q 0,-0.8021 0.5754744,-1.3776 0.5754743,-0.5755 1.3776506,-0.5755 l 2.7901786,0 q 0.8021763,0 1.3776507,0.5755 0.5754743,0.5755 0.5754743,1.3776 l 0,0.2791 5.8593752,0 q 0.802177,0 1.377651,0.5754 0.575474,0.5755 0.575474,1.3777 z" />
    </g>
  </g>
</svg>
