<?xml version="1.0" encoding="UTF-8" standalone="no"?>
<!-- Created with Inkscape (http://www.inkscape.org/) -->

<svg
   xmlns:dc="http://purl.org/dc/elements/1.1/"
   xmlns:cc="http://creativecommons.org/ns#"
   xmlns:rdf="http://www.w3.org/1999/02/22-rdf-syntax-ns#"
   xmlns:svg="http://www.w3.org/2000/svg"
   xmlns="http://www.w3.org/2000/svg"
   xmlns:sodipodi="http://sodipodi.sourceforge.net/DTD/sodipodi-0.dtd"
   xmlns:inkscape="http://www.inkscape.org/namespaces/inkscape"
   width="16"
   height="16"
   viewBox="0 0 16 16"
   id="svg2"
   version="1.1"
   inkscape:version="0.91 r13725"
   inkscape:export-filename="C:\Users\Frank Hoffmann\Desktop\ZMS_ICONS\solr.png"
   inkscape:export-xdpi="90"
   inkscape:export-ydpi="90"
   sodipodi:docname="Solr.svg">
  <defs
     id="defs4" />
  <sodipodi:namedview
     id="base"
     pagecolor="#ffffff"
     bordercolor="#666666"
     borderopacity="1.0"
     inkscape:pageopacity="0.0"
     inkscape:pageshadow="2"
     inkscape:zoom="19.324193"
     inkscape:cx="-8.2513879"
     inkscape:cy="-0.62086189"
     inkscape:document-units="px"
     inkscape:current-layer="layer1"
     showgrid="true"
     borderlayer="true"
     inkscape:showpageshadow="false"
     units="px"
     inkscape:window-width="1920"
     inkscape:window-height="1147"
     inkscape:window-x="-8"
     inkscape:window-y="-8"
     inkscape:window-maximized="1">
    <inkscape:grid
       type="xygrid"
       id="grid3353" />
  </sodipodi:namedview>
  <metadata
     id="metadata7">
    <rdf:RDF>
      <cc:Work
         rdf:about="">
        <dc:format>image/svg+xml</dc:format>
        <dc:type
           rdf:resource="http://purl.org/dc/dcmitype/StillImage" />
        <dc:title />
      </cc:Work>
    </rdf:RDF>
  </metadata>
  <g
     inkscape:label="Ebene 1"
     inkscape:groupmode="layer"
     id="layer1"
     transform="translate(0,-1036.3622)">
    <g
       transform="matrix(0.23869339,0,0,-0.23869339,4.2094416,1037.3056)"
       id="g4210">
      <path
         inkscape:connector-curvature="0"
         id="path4212"
         style="fill:#428bca;fill-opacity:1;fill-rule:nonzero;stroke:none"
         d="M 0,0 C -4.738,-2.534 -8.794,-6.17 -11.832,-10.567 L -6.965,-35.071 0,0 Z m -14.7984,-15.8222 c -1.51,-3.343 -2.489,-6.974 -2.829,-10.792 l 5.215,-9.32 -2.386,20.112 z m 33.4148,-47.2569 c 3.718,0.308 7.264,1.217 10.54,2.638 l -19.358,2.297 8.818,-4.935 z m 4.0158,66.3366 -19.237,-41.695 35.685,33.006 c -4.475,4.305 -10.135,7.386 -16.448,8.689 m 11.9755,-60.7108 c 4.391,2.972 8.037,6.958 10.612,11.619 l -34.559,-6.863 23.947,-4.756 z m 14.4886,32.195 -39.298,-21.992 36.87,4.375 c 1.748,4.065 2.72,8.543 2.72,13.249 0,1.482 -0.106,2.937 -0.292,4.368 M 15.8098,3.9525 c -4.572,0 -8.928,-0.917 -12.9,-2.572 l -4.428,-37.314 22.127,39.539 c -1.568,0.225 -3.169,0.347 -4.799,0.347 m 24.4847,-10.6122 -33,-35.677 41.473,19.134 c -1.227,6.33 -4.231,12.022 -8.473,16.543" />
    </g>
  </g>
</svg>
