<?xml version="1.0" encoding="UTF-8" standalone="no"?>
<svg
   width="172"
   height="76"
   version="1.1"
   viewBox="0 0 45.508331 20.108323"
   id="svg14"
   sodipodi:docname="zmslogo.svg"
   inkscape:version="1.1 (c68e22c387, 2021-05-23)"
   xmlns:inkscape="http://www.inkscape.org/namespaces/inkscape"
   xmlns:sodipodi="http://sodipodi.sourceforge.net/DTD/sodipodi-0.dtd"
   xmlns="http://www.w3.org/2000/svg"
   xmlns:svg="http://www.w3.org/2000/svg">
  <defs
     id="defs18" />
  <sodipodi:namedview
     id="namedview16"
     pagecolor="#ffffff"
     bordercolor="#666666"
     borderopacity="1.0"
     inkscape:pageshadow="2"
     inkscape:pageopacity="0.0"
     inkscape:pagecheckerboard="0"
     inkscape:document-units="mm"
     showgrid="false"
     inkscape:zoom="3.335887"
     inkscape:cx="109.11641"
     inkscape:cy="66.399133"
     inkscape:current-layer="svg14"
     units="px"
     height="56px" />
  <g
     fill="#07aee9"
     stroke-width="0.81651px"
     style="font-variant-ligatures:normal;font-variant-caps:normal;font-variant-numeric:normal;font-feature-settings:normal"
     aria-label="ZMS"
     id="g8"
     transform="matrix(1.6875,0,0,1.6875,-24.52771,-230.70582)">
    <path
       d="m 22.986,148.52 h -5.6693 v -1.4512 l 2.7669,-8.492 h -2.5994 v -1.4911 h 5.3105 v 1.507 l -2.7509,8.4601 h 2.9423 z"
       style="font-variant-ligatures:normal;font-variant-caps:normal;font-variant-numeric:normal;font-feature-settings:normal"
       id="path2" />
    <path
       d="m 32.313,148.52 h -2.2406 v -6.4189 l -1.3077,6.4189 h -1.7303 l -1.4991,-6.4189 v 6.4189 h -1.9615 v -11.434 h 3.2294 l 1.1482,5.9325 0.99672,-5.9325 h 3.3649 z"
       style="font-variant-ligatures:normal;font-variant-caps:normal;font-variant-numeric:normal;font-feature-settings:normal"
       id="path4" />
    <path
       d="m 33.004,143.95 h 2.2885 v 2.6234 q 0,0.39071 0.47045,0.39071 0.4545,0 0.4545,-0.39071 v -1.3555 q 0,-0.62195 -0.82927,-1.4592 -1.6027,-1.5549 -1.9934,-2.0891 -0.39071,-0.53424 -0.39071,-1.1721 v -1.2838 q 0,-2.2247 2.9024,-2.2247 2.5994,0 2.5994,2.0253 v 1.9775 h -2.2885 v -2.1051 q 0,-0.34287 -0.37477,-0.34287 -0.43856,0 -0.43856,0.66182 l 0.04784,0.74156 q 0,0.6379 0.84522,1.4831 1.5708,1.507 1.9934,2.1051 0.43058,0.59804 0.43058,1.3555 v 1.4592 q 0,2.2805 -2.9104,2.2805 -2.8068,0 -2.8068,-2.0732 z"
       style="font-variant-ligatures:normal;font-variant-caps:normal;font-variant-numeric:normal;font-feature-settings:normal"
       id="path6" />
  </g>
</svg>
