<?xml version="1.0" encoding="UTF-8"?>
<!-- Created with Inkscape (http://www.inkscape.org/) -->
<svg width="210mm" height="100mm" version="1.1" viewBox="0 0 210 100" xmlns="http://www.w3.org/2000/svg" xmlns:cc="http://creativecommons.org/ns#" xmlns:dc="http://purl.org/dc/elements/1.1/" xmlns:rdf="http://www.w3.org/1999/02/22-rdf-syntax-ns#" xmlns:xlink="http://www.w3.org/1999/xlink">
 <metadata>
  <rdf:RDF>
   <cc:Work rdf:about="">
    <dc:format>image/svg+xml</dc:format>
    <dc:type rdf:resource="http://purl.org/dc/dcmitype/StillImage"/>
    <dc:title/>
   </cc:Work>
  </rdf:RDF>
 </metadata>
 <g transform="translate(0,-197)">
  <g fill-rule="evenodd">
   <path d="m29.284 287.56 37.618-12.83-16.284-38.646z" fill="#7ee5ff"/>
   <path d="m0.42985 264.16 76.098 32.442-35.231-80.38z" fill="#0b2228" fill-opacity=".53055"/>
   <path d="m41.286 216.23 35.242 80.375 120.53-95.34-70.101-4.239z" fill="#fff" fill-opacity=".79421"/>
   <path d="m149.73 238.62-73.199 57.979 50.567-99.541z" fill="#08a" fill-opacity=".22275"/>
   <path d="m56.686 256.38 68.603 12.996 1.6548-72.364z" fill="#0b2228"/>
   <path d="m196.19 296.83 13.691-68.757-209.77 35.83z" fill="#d40000"/>
   <path d="m178.02 216.38-52.76 26.33 70.958 54.156z" fill="#08a" fill-opacity=".35065"/>
   <path d="m125.31 242.71-84.075-26.575 55.807 64.221z" fill="#00c1f2" fill-opacity=".23292"/>
   <path d="m196.83 201.26 13.274 27.283-83.034-31.514z" fill="#5df" fill-opacity=".75649"/>
   <path d="m196.05 296.76-68.451-0.0423-30.368-16.465z" fill="#08a"/>
  </g>
 </g>
</svg>
