<?xml version="1.0" encoding="UTF-8"?>
<svg width="45.685mm" height="11.642mm" version="1.1" viewBox="0 0 45.685 11.642" xmlns="http://www.w3.org/2000/svg">
<g transform="translate(-17.317 -136.99)">
<g fill="#07aee9" stroke-width=".81651px" style="font-feature-settings:normal;font-variant-caps:normal;font-variant-ligatures:normal;font-variant-numeric:normal" aria-label="ZMS">
<path d="m22.986 148.52h-5.6693v-1.4512l2.7669-8.492h-2.5994v-1.4911h5.3105v1.507l-2.7509 8.4601h2.9423z" style="font-feature-settings:normal;font-variant-caps:normal;font-variant-ligatures:normal;font-variant-numeric:normal"/>
<path d="m32.313 148.52h-2.2406v-6.4189l-1.3077 6.4189h-1.7303l-1.4991-6.4189v6.4189h-1.9615v-11.434h3.2294l1.1482 5.9325 0.99672-5.9325h3.3649z" style="font-feature-settings:normal;font-variant-caps:normal;font-variant-ligatures:normal;font-variant-numeric:normal"/>
<path d="m33.004 143.95h2.2885v2.6234q0 0.39071 0.47045 0.39071 0.4545 0 0.4545-0.39071v-1.3555q0-0.62195-0.82927-1.4592-1.6027-1.5549-1.9934-2.0891-0.39071-0.53424-0.39071-1.1721v-1.2838q0-2.2247 2.9024-2.2247 2.5994 0 2.5994 2.0253v1.9775h-2.2885v-2.1051q0-0.34287-0.37477-0.34287-0.43856 0-0.43856 0.66182l0.04784 0.74156q0 0.6379 0.84522 1.4831 1.5708 1.507 1.9934 2.1051 0.43058 0.59804 0.43058 1.3555v1.4592q0 2.2805-2.9104 2.2805-2.8068 0-2.8068-2.0732z" style="font-feature-settings:normal;font-variant-caps:normal;font-variant-ligatures:normal;font-variant-numeric:normal"/>
</g>
<path d="m39.438 137.05v11.38h1.0724v-11.38zm1.946 0v11.38h2.4111c-0.28192-0.10249-0.52596-0.24944-0.72994-0.44416-0.4258-0.41599-0.63869-0.97882-0.63869-1.6885 0-0.70968 0.31078-1.2847 0.93234-1.7252 0.62156-0.44048 1.4291-0.66071 2.4226-0.66071h1.9528v-0.98374c0-0.56772-0.18109-1.0131-0.54326-1.3361-0.35728-0.323-0.86382-0.48452-1.5196-0.48452-0.60199 0-1.089 0.14683-1.4609 0.44048-0.36706 0.29365-0.5506 0.66317-0.5506 1.1085h-0.81488l-0.01468-0.044c-0.02939-0.59711 0.22513-1.1208 0.76349-1.571 0.54326-0.45514 1.2505-0.68274 2.1216-0.68274 0.87117 0 1.571 0.22269 2.0996 0.66806 0.52858 0.44538 0.79286 1.0841 0.79286 1.9161v3.9056c0 0.27897 0.01468 0.55061 0.04404 0.81488 0.03347 0.25807 0.08603 0.51379 0.15679 0.76717h1.194v-11.38zm9.4996 0v4.6738c0.26429-0.43557 0.60199-0.77085 1.0131-1.0057 0.41111-0.23983 0.89808-0.35974 1.4609-0.35974 0.95437 0 1.7007 0.38175 2.2391 1.1452 0.53836 0.7586 0.80754 1.7717 0.80754 3.0393v0.15416c0 1.1893-0.26918 2.1388-0.80754 2.8484-0.32247 0.42215-0.71949 0.71536-1.1877 0.88463h4.4326c-0.3793-0.11501-0.70721-0.28753-0.98374-0.51755-0.54815-0.46007-0.80754-1.0082-0.77818-1.6445l0.01468-0.044h0.80754c0.03426 0.57263 0.26673 0.98863 0.69742 1.248 0.43558 0.25938 0.94703 0.38908 1.5343 0.38908 0.63624 0 1.1379-0.14191 1.505-0.4258 0.36706-0.28386 0.5506-0.62401 0.5506-1.0204 0-0.37195-0.15417-0.69496-0.4625-0.96905-0.30344-0.27895-0.85404-0.50653-1.6518-0.68273-0.93969-0.19577-1.6396-0.4625-2.0996-0.8002-0.45516-0.3426-0.68274-0.81977-0.68274-1.4316 0-0.60687 0.2545-1.1208 0.7635-1.5417 0.51389-0.4209 1.1917-0.63136 2.0335-0.63136 0.88585 0 1.5931 0.22514 2.1216 0.6754 0.52857 0.44539 0.78062 0.99597 0.75615 1.6518l-0.01468 0.044h-0.81489c0-0.43557-0.18843-0.81487-0.56528-1.1379-0.37196-0.323-0.86627-0.48452-1.4829-0.48452-0.63625 0-1.1159 0.13949-1.4389 0.41845-0.32302 0.27898-0.48453 0.60446-0.48453 0.9764 0 0.36216 0.13704 0.66317 0.41111 0.90298 0.27897 0.23492 0.83202 0.44293 1.6591 0.62401 0.9299 0.20556 1.6322 0.49187 2.107 0.85893 0.34288 0.26241 0.56086 0.59126 0.65862 0.98374v-8.8216zm2.3052 4.0718c-0.60688 0-1.0963 0.1493-1.4683 0.44784-0.37196 0.29367-0.65093 0.67542-0.83691 1.1452v3.6339c0.19577 0.46006 0.48453 0.82468 0.86627 1.0939 0.38664 0.26429 0.87117 0.39643 1.4536 0.39643 0.76839 0 1.3459-0.28387 1.7325-0.8516 0.38664-0.56773 0.57996-1.3312 0.57996-2.2905v-0.15416c0-1.0131-0.19577-1.8353-0.5873-2.4667-0.39154-0.63624-0.9715-0.9544-1.7399-0.9544zm-7.4147 3.4651c-0.71455 0-1.3043 0.17132-1.7692 0.51391-0.46495 0.3377-0.69743 0.74635-0.69743 1.226 0 0.45028 0.14683 0.81246 0.44048 1.0865 0.29855 0.27407 0.70721 0.41111 1.226 0.41111 0.6754 0 1.2603-0.15906 1.7546-0.47718 0.49431-0.32302 0.82956-0.73657 1.0058-1.2407v-1.5196zm17.228 2.2916c-0.10606 0.43425-0.3536 0.80369-0.74672 1.1075-0.25258 0.19467-0.54576 0.34168-0.87624 0.44416h1.623zm-15.268 0.23387c-0.27407 0.43068-0.65827 0.78796-1.1526 1.0718-0.17721 0.10007-0.36448 0.1818-0.56056 0.24595h1.8715c-0.05186-0.2699-0.09303-0.50555-0.12166-0.7011-0.02448-0.20066-0.03668-0.4062-0.03668-0.61666zm3.1054 0.14681-0.14472 1.171h1.5779c-0.14121-0.0483-0.27776-0.10358-0.40535-0.17252-0.4209-0.23492-0.7635-0.56773-1.0278-0.99843z" fill-rule="evenodd"/>
</g>
</svg>
